<svg xmlns="http://www.w3.org/2000/svg" viewBox="0 0 836.42 394.66"><defs><style>.cls-1{fill:#ef3340;}.cls-2{fill:#fff;}</style></defs><g id="Capa_1" data-name="Capa 1"><rect class="cls-1" x="131.6" y="131.64" width="131.55" height="131.55" rx="21.02"/><polygon class="cls-2" points="153.53 197.42 153.53 263.2 175.45 263.2 175.45 219.34 219.3 219.34 219.3 263.2 241.23 263.2 241.23 197.42 153.53 197.42"/><polygon class="cls-2" points="285.83 131.65 285.83 140.28 294.21 140.28 294.21 170.86 304.4 170.86 304.4 140.28 312.77 140.28 312.77 131.65 285.83 131.65"/><polygon class="cls-2" points="343.56 131.65 343.56 146.78 328.84 146.78 328.84 131.65 318.65 131.65 318.65 170.86 328.84 170.86 328.84 154.69 343.56 154.69 343.56 170.86 353.75 170.86 353.75 131.65 343.56 131.65"/><polygon class="cls-2" points="359.63 131.65 359.63 170.86 381.94 170.86 381.94 162.23 369.83 162.23 369.83 155.47 381.27 155.47 381.27 146.83 369.83 146.83 369.83 140.28 381.94 140.28 381.94 131.65 359.63 131.65"/><path class="cls-2" d="M308.53,245.54h5q8.61,0,12.33-2.21c2.48-1.47,3.72-3.84,3.72-7.09s-1.24-5.62-3.72-7.1-6.59-2.21-12.33-2.21h-5Zm0-35.59h4.19q10.69,0,10.7-8.49T312.72,193h-4.19Zm-22.8-34.43h34q12.09,0,18.38,5.81t6.28,16.75a22.76,22.76,0,0,1-2.39,11,20,20,0,0,1-7.27,7.38,27.54,27.54,0,0,1,8.32,2.85A18.1,18.1,0,0,1,348.6,224a17.51,17.51,0,0,1,3.08,6.29,28.72,28.72,0,0,1,.93,7.44,26.23,26.23,0,0,1-2.15,10.93,22.14,22.14,0,0,1-6,8,25.66,25.66,0,0,1-9.48,4.88,44.67,44.67,0,0,1-12.56,1.63H285.73Z"/><path class="cls-2" d="M381.94,214.72h4.31q6.74,0,10.35-2.79a10.76,10.76,0,0,0,0-16.06q-3.62-2.79-10.35-2.79h-4.31Zm50.14,48.5H403.69l-21.75-33.73v33.73h-22.8v-87.7h35.48a35,35,0,0,1,12.8,2.15,25,25,0,0,1,9,5.87,24.72,24.72,0,0,1,5.35,8.61,30.07,30.07,0,0,1,1.81,10.47q0,10-4.83,16.23t-14.25,8.43Z"/><path class="cls-2" d="M494.12,243.91h5.24a28.31,28.31,0,0,0,10.58-1.86,22.58,22.58,0,0,0,7.85-5.11,22.19,22.19,0,0,0,4.89-7.74,27.75,27.75,0,0,0,1.68-9.83,27,27,0,0,0-1.74-9.77,22.49,22.49,0,0,0-4.94-7.79,22.74,22.74,0,0,0-7.86-5.12,28,28,0,0,0-10.46-1.86h-5.24Zm-22.8-68.39h33.74a39.65,39.65,0,0,1,16.8,3.61,45.78,45.78,0,0,1,13.73,9.59,44.75,44.75,0,0,1,9.25,14,43,43,0,0,1,0,33.27,44.44,44.44,0,0,1-9.18,14A45.58,45.58,0,0,1,522,259.62a40.11,40.11,0,0,1-16.92,3.6H471.32Z"/><path class="cls-2" d="M601.26,214.14H646.5a124.79,124.79,0,0,1-.58,12.67,44.67,44.67,0,0,1-2.33,10.59A42,42,0,0,1,637,249.56a39,39,0,0,1-9.82,8.84,46.25,46.25,0,0,1-12.39,5.4,53.18,53.18,0,0,1-14.19,1.87,49.8,49.8,0,0,1-18.67-3.38,42.15,42.15,0,0,1-14.48-9.48A42.6,42.6,0,0,1,558,238.15a50.78,50.78,0,0,1-3.38-18.9,51.53,51.53,0,0,1,3.32-18.78,41.22,41.22,0,0,1,9.42-14.6,42.82,42.82,0,0,1,14.71-9.42,52.22,52.22,0,0,1,19.2-3.38q13.71,0,24.07,5.94t16.4,18.38l-21.63,9q-3-7.2-7.85-10.35a19.76,19.76,0,0,0-11-3.14,22.05,22.05,0,0,0-9.31,1.92,20.06,20.06,0,0,0-7.15,5.47,26.25,26.25,0,0,0-4.66,8.54A35,35,0,0,0,578.46,220a35.44,35.44,0,0,0,1.45,10.36,23.27,23.27,0,0,0,4.36,8.25,19.63,19.63,0,0,0,7.21,5.41,24.39,24.39,0,0,0,10,1.92,27.36,27.36,0,0,0,6.51-.76,17,17,0,0,0,5.64-2.44,13.69,13.69,0,0,0,4.13-4.36,17.36,17.36,0,0,0,2.21-6.51H601.26Z"/><rect class="cls-2" x="436.33" y="175.52" width="22.8" height="87.7"/><polygon class="cls-2" points="655.19 175.52 655.19 263.22 705.09 263.22 705.09 243.91 677.99 243.91 677.99 228.79 703.58 228.79 703.58 209.48 677.99 209.48 677.99 194.83 705.09 194.83 705.09 175.52 655.19 175.52"/></g></svg>